# xmcd
#
# Track frame offsets: 
#        150
#        19022
#        39459
#        61712
#
# Disc length: 1104 seconds
#
# Revision: 0
# Processed by: cddbd v1.5.2PL0 Copyright (c) Steve Scherf et al.
# Submitted via: ExactAudioCopy v0.95a5
#
DISCID=25044e04
DTITLE=COLOR - Blue Sky
DYEAR=2007
DGENRE=JPop
TTITLE0=Blue Sky
TTITLE1=Make It Hot
TTITLE2=I'm thinkin' bout U
TTITLE3=Tell Me It's Real
EXTD=
EXTT0=
EXTT1=
EXTT2=
EXTT3=
PLAYORDER=
